<?xml version="1.0" encoding="utf-8" ?><svg xmlns="http://www.w3.org/2000/svg" xmlns:xlink="http://www.w3.org/1999/xlink" width="1376" height="768" viewBox="0 0 1376 768"><defs><linearGradient id="gradient_0" gradientUnits="userSpaceOnUse" x1="511.71899" y1="283.07169" x2="700.23981" y2="277.55789"><stop offset="0" stop-color="#03379A"/><stop offset="1" stop-color="#614BCC"/></linearGradient></defs><path fill="url(#gradient_0)" d="M715.359 459.527C703.282 463 676.168 462.128 663.631 460.405C618.166 454.02 577.043 429.988 549.162 393.51C518.364 353.213 505.241 302.14 512.8 251.986C520.075 203.5 545.948 159.754 584.933 130.024C612.255 109.421 645.003 97.2532 679.15 95.0187C685.751 94.5931 695.244 94.3407 701.768 95.2773L701.176 95.4152C701.189 95.4124 689.592 96.1858 690.677 96.3903C691.995 97.0861 693.191 97.3201 693.317 98.5159C693.755 102.675 692.379 110.223 694.567 113.82C696.167 113.972 705.451 109.848 710.612 112.011C669.509 118.842 635.675 136.204 610.837 170.774C584.987 206.754 575.149 256.504 589.54 298.927C594.046 312.21 602.553 331.706 619.666 329.024C630.938 327.283 637.931 317.391 643.99 308.75L645.619 306.413C647.735 324.179 644.564 323.755 652.456 342.448C646.445 347.946 641.787 351.11 634.808 355.367C642.255 359.449 648.371 363.014 656.55 365.631C695.589 378.663 731.939 380.286 769.628 361.473C805.053 343.749 831.925 312.6 844.263 274.957C853.658 246.699 853.085 221.038 846.449 192.251C868.773 239.566 871.475 293.791 853.964 343.091C838.008 388.001 804.889 424.747 761.875 445.267C753.014 449.472 724.658 460.104 715.359 459.527ZM707.458 430.951C754.202 423.098 783.355 402.541 810.756 365.204C805.694 369.132 800.508 372.899 795.207 376.498C762.217 398.534 717.347 409.851 678.062 402.076C631.942 394.52 594.07 371.39 566.254 333.448C551.709 313.608 547.603 299.199 540.02 276.792C540.701 305.311 546.798 330.739 561.156 355.68C587.587 401.59 637.363 433.497 691.09 432.007C696.505 431.856 702.039 431.437 707.458 430.951Z"/><path fill="#7148D8" d="M846.449 192.251C868.773 239.566 871.475 293.791 853.964 343.091C838.008 388.001 804.889 424.747 761.875 445.267C753.014 449.472 724.658 460.104 715.359 459.527C710.35 458.406 707.976 460.251 703.086 460.163L702.645 459.492C705.641 454.654 703.073 445.569 704.486 439.652C704.912 437.872 705.047 434.072 704.858 432.254L706.798 431.973L707.458 430.951C754.202 423.098 783.355 402.541 810.756 365.204C805.694 369.132 800.508 372.899 795.207 376.498C762.217 398.534 717.347 409.851 678.062 402.076C677.056 399.779 673.806 396.438 672.028 394.508C662.644 384.322 659.766 378.775 656.55 365.631C695.589 378.663 731.939 380.286 769.628 361.473C805.053 343.749 831.925 312.6 844.263 274.957C853.658 246.699 853.085 221.038 846.449 192.251Z"/><path fill="#7148D8" d="M741.011 217.026C739.426 211.64 738.834 208.551 739.429 202.872C741.014 187.754 759.275 177.887 772.843 185.954C778.363 189.268 782.312 194.669 783.795 200.934C786.537 212.452 780.003 225.524 768.087 228.073C762.295 229.312 756.45 228.535 750.875 226.751C744.878 233.277 738.722 239.862 732.821 246.459C740.476 260.611 744.644 273.814 739.787 290.214C736.019 302.954 727.32 313.662 715.622 319.958C704.043 326.042 690.506 327.218 678.052 323.221C675.503 322.43 672.029 320.93 669.584 319.829C663.911 328.606 660.087 335.153 652.456 342.448C644.564 323.755 647.735 324.179 645.619 306.413L649.163 299.798C642.892 287.281 641.029 273.668 645.468 260.121C649.554 247.757 658.407 237.536 670.061 231.728C682.078 225.863 695.925 224.987 708.584 229.29C714.017 231.134 717.226 233.082 721.927 236.079C728.182 229.622 734.544 223.27 741.011 217.026ZM709.824 275.407C717.789 274.058 723.189 266.555 721.94 258.574C720.69 250.592 713.255 245.099 705.259 246.249C699.998 247.006 695.55 250.535 693.616 255.486C691.682 260.438 692.56 266.047 695.915 270.17C699.27 274.294 704.583 276.294 709.824 275.407Z"/><path fill="#010130" d="M1015.31 523.742C1036.2 521.627 1054.89 536.76 1057.17 557.64C1059.46 578.52 1044.47 597.332 1023.61 599.778C1002.52 602.252 983.447 587.062 981.141 565.946C978.834 544.831 994.175 525.882 1015.31 523.742ZM1024.81 590.392C1040.7 587.257 1051.01 571.807 1047.8 555.936C1044.6 540.065 1029.11 529.822 1013.25 533.092C997.491 536.343 987.324 551.723 990.507 567.498C993.69 583.273 1009.03 593.507 1024.81 590.392Z"/><path fill="#010130" d="M383.403 523.729C404.479 521.772 423.124 537.337 424.964 558.426C426.804 579.514 411.137 598.074 390.04 599.797C369.107 601.507 350.725 585.987 348.899 565.063C347.073 544.139 362.491 525.67 383.403 523.729ZM392.025 590.464C402.412 588.616 410.995 581.311 414.479 571.352C417.963 561.393 415.807 550.33 408.837 542.409C401.868 534.488 391.169 530.942 380.849 533.131C365.252 536.439 355.19 551.644 358.241 567.294C361.291 582.945 376.328 593.257 392.025 590.464Z"/><path fill="#010130" d="M866.259 525.01C883.176 524.733 906.751 522.6 920.03 534.575C927.046 540.978 931.229 549.906 931.658 559.395C932.203 570.438 928.198 580.022 920.897 588.129C906.177 601.404 884.944 598.777 866.181 598.581L866.259 525.01ZM875.437 590.646C889.635 590.743 902.696 592.113 914.136 582.152C919.853 575.058 923.08 567.604 922.031 558.258C921.228 550.732 917.386 543.86 911.396 539.234C901.544 531.681 887.346 532.552 875.481 532.879C875.458 551.973 875.193 571.598 875.437 590.646Z"/><path fill="#010130" d="M454.499 525.122C466.682 524.762 478.503 523.905 490.169 527.876C506.769 533.527 506.991 553.539 494.215 563.332C490.85 565.91 487.735 567.005 483.855 568.531C491.245 578.644 498.751 588.671 506.373 598.609C498.764 598.949 496.361 599.88 491.133 593.542L473.989 569.903C467.373 569.662 459.97 569.807 453.294 569.792C453.026 578.915 453.294 589.33 453.323 598.551L444.191 598.559C443.871 576.504 443.433 547.079 444.402 525.393L454.499 525.122ZM453.425 562.354C465.456 562.526 478.868 563.932 489.313 557.602C494.263 551.46 497.145 543.204 489.571 537.783C480.32 531.161 464.31 532.416 453.378 532.807C453.248 542.656 453.264 552.506 453.425 562.354Z"/><path fill="#010130" d="M549.755 524.756L558.35 524.72C569.83 548.403 582.213 574.577 592.707 598.628L582.764 598.663L574.078 579.36L560.736 579.28L534.077 579.292C531.908 585.266 528.314 592.655 525.632 598.561L515.956 598.604L549.755 524.756ZM537.989 571.394C543.653 571.417 549.475 571.368 555.123 571.48C560.198 571.506 565.475 571.454 570.529 571.571C567.633 564.993 557.417 541.141 553.95 536.007C548.689 547.093 542.498 560.033 537.989 571.394Z"/><path fill="#010130" d="M835.165 525.008L844.436 525.166L844.493 531.99C844.748 549.467 848.434 581.688 833.247 593.939C822.079 602.948 797.706 601.871 788.816 589.453C781.209 578.825 782.339 563.398 782.173 550.932C782.356 543.239 781.444 532.439 782.54 525.103L791.328 525.214C791.306 538.962 791.172 552.724 791.417 566.48C791.663 580.303 798.128 591.374 813.161 591.45C836.564 591.569 835.622 568.887 835.304 551.74C835.142 543.006 835.212 533.797 835.165 525.008Z"/><path fill="#010130" d="M667.667 523.714C679.472 524.013 684.027 526.486 693.541 532.708C691.955 534.911 690.353 537.371 688.819 539.634C679.266 534.078 667.125 527.329 656.422 535.114C654.494 536.517 651.016 540.792 651.31 543.123C652.823 555.133 671.443 556.23 680.464 560.132C687.338 562.871 696.976 568.974 696.38 577.676C695.093 596.472 680.882 599.915 665.328 599.466C653.876 598.39 648.344 594.54 639.79 587.741L645.102 581.368C654.864 588.643 660.384 591.724 673.065 591.506C680.647 591.375 688.145 585.485 686.539 577.548C683.688 563.454 656.845 566.819 648.079 557.165C645.337 554.145 642.557 552.197 642.393 547.424C642.592 530.342 653.367 524.928 667.667 523.714Z"/><path fill="#010130" d="M707.826 525.488C722.157 524.282 751.349 525.182 766.628 525.241L766.565 532.9C758.2 532.847 749.834 532.858 741.469 532.934C741.341 546.225 741.282 559.517 741.292 572.808L741.289 598.597L732.431 598.567C732.058 576.942 732.303 554.606 732.266 532.926C727.169 532.651 711.414 533.235 707.878 532.404C707.098 530.108 707.558 527.916 707.826 525.488Z"/><path fill="#7148D8" d="M701.768 95.2773C731.086 95.5807 770.345 109.606 793.19 127.994C767.945 116.911 743.174 109.677 715.715 111.738C714.559 111.824 711.629 112.091 710.612 112.011C705.451 109.848 696.167 113.972 694.567 113.82C692.379 110.223 693.755 102.675 693.317 98.5159C693.191 97.3201 691.995 97.0861 690.677 96.3903C689.592 96.1858 701.189 95.4124 701.176 95.4152L701.768 95.2773Z"/><path fill="#010130" d="M320.085 525.073L328.503 525.299L328.415 598.536L319.693 598.542L319.596 550.875C319.588 544.84 319.272 530.597 320.085 525.073Z"/><path fill="#010130" d="M952.176 525.305L960.972 525.306C960.349 549.219 960.772 574.579 960.874 598.528L952.065 598.561L952.176 525.305Z"/><path fill="#7148D8" d="M772.824 259.73C777.794 258.042 783.195 260.685 784.912 265.646C786.629 270.606 784.019 276.022 779.069 277.769C774.077 279.531 768.606 276.893 766.874 271.891C765.142 266.889 767.812 261.432 772.824 259.73Z"/></svg>