<?xml version="1.0" encoding="utf-8" ?><svg xmlns="http://www.w3.org/2000/svg" xmlns:xlink="http://www.w3.org/1999/xlink" width="1376" height="768" viewBox="0 0 1376 768"><defs><linearGradient id="gradient_0" gradientUnits="userSpaceOnUse" x1="583.82233" y1="425.29575" x2="660.81769" y2="319.97443"><stop offset="0" stop-color="#354187"/><stop offset="1" stop-color="#6573B3"/></linearGradient></defs><path fill="url(#gradient_0)" d="M792.293 425.652C788.732 429.198 781.791 433.637 777.46 436.298C738.904 459.767 690.169 468.044 646.225 456.991C548.661 432.451 492.246 330.719 516.82 234.614L517.795 235.807C527.664 234.696 535.482 237.072 541.705 245.442C552.294 259.685 568.355 266.794 580.265 278.378C584.343 282.344 578.739 293.068 587.566 297.822L588.188 297.589C603.962 338.685 625.829 341.656 647.325 302.229C646.145 309.432 647.535 336.023 653.911 339.877C647.237 346.353 642.677 349.501 634.967 354.905C659.612 373.993 699.214 377.816 729.33 374.012C730.216 373.901 731.099 373.76 731.976 373.59C760.133 368.811 789.415 352.924 809.401 332.635L811.866 333.888C813.38 332.931 813.9 332.464 815.703 332.438C817.058 333.204 822.557 337.549 823.548 338.861C829.252 346.413 844.28 345.477 849.12 352.73C837.862 378.921 822.973 400.179 801.065 419.01C799.676 420.204 793.386 425.206 792.293 425.652ZM770.313 406.216C786.987 394.245 798.414 383.836 809.614 366.485C793.071 379.336 774.323 390.457 754.106 396.36C677.944 422.672 587.259 382.679 552.416 310.472C547.508 300.302 544.706 290.141 540.435 279.998C541.77 363.075 606.562 433.217 691.487 432.075C717.812 431.721 748.963 421.955 770.313 406.216Z"/><defs><linearGradient id="gradient_1" gradientUnits="userSpaceOnUse" x1="758.11444" y1="405.27963" x2="813.65887" y2="326.47665"><stop offset="0" stop-color="#715DB2"/><stop offset="1" stop-color="#A38EDA"/></linearGradient></defs><path fill="url(#gradient_1)" d="M809.401 332.635L811.866 333.888C813.38 332.931 813.9 332.464 815.703 332.438C817.058 333.204 822.557 337.549 823.548 338.861C829.252 346.413 844.28 345.477 849.12 352.73C837.862 378.921 822.973 400.179 801.065 419.01C799.676 420.204 793.386 425.206 792.293 425.652C788.782 426.527 789.519 426.127 785.711 424.258C781.723 422.301 773.572 414.753 772.145 410.462C771.467 408.422 771.451 408.382 770.313 406.216C786.987 394.245 798.414 383.836 809.614 366.485C793.071 379.336 774.323 390.457 754.106 396.36L753.358 396.312C742.917 395.555 728.797 384.562 722.287 376.851C723.904 375.265 728.358 376.328 731.976 373.59C760.133 368.811 789.415 352.924 809.401 332.635Z"/><defs><linearGradient id="gradient_2" gradientUnits="userSpaceOnUse" x1="592.94269" y1="273.66733" x2="692.06812" y2="76.13549"><stop offset="0" stop-color="#5C8FB7"/><stop offset="1" stop-color="#AABBF0"/></linearGradient></defs><path fill="url(#gradient_2)" d="M535.764 187.456C536.739 184.765 541.309 177.769 542.988 175.244C569.674 135.108 610.21 107.049 657.664 97.8992C688.792 91.8974 720.434 94.7648 750.245 105.546C755.396 107.408 764.949 110.883 769.483 113.913L769.355 114.842L771.477 116.211L771.37 117.403C769.28 116.708 768.177 116.359 765.95 115.944L765.343 116.537C681.587 97.1331 606.02 140.192 585.768 225.768C583.525 235.246 582.973 243.841 582.204 253.488C582.711 266.773 582.807 278.754 586.709 291.598C587.205 293.232 587.922 295.91 588.188 297.589L587.566 297.822C578.739 293.068 584.343 282.344 580.265 278.378C568.355 266.794 552.294 259.685 541.705 245.442C535.482 237.072 527.664 234.696 517.795 235.807L516.82 234.614C520.518 220.112 527.522 200.026 535.764 187.456Z"/><path fill="#5683B3" d="M516.82 234.614C520.518 220.112 527.522 200.026 535.764 187.456C536.427 193.032 525.627 205.947 527.056 210.788C539.786 217.308 544.816 224.608 555.274 233.295C565.12 241.473 561.837 246.105 567.809 254.173L568.134 254.616C571.932 259.734 579.132 263.502 580.622 267.718C583.143 264.741 580.376 255.949 582.204 253.488C582.711 266.773 582.807 278.754 586.709 291.598C587.205 293.232 587.922 295.91 588.188 297.589L587.566 297.822C578.739 293.068 584.343 282.344 580.265 278.378C568.355 266.794 552.294 259.685 541.705 245.442C535.482 237.072 527.664 234.696 517.795 235.807L516.82 234.614Z"/><defs><linearGradient id="gradient_3" gradientUnits="userSpaceOnUse" x1="663.63116" y1="292.0473" x2="791.43091" y2="216.34531"><stop offset="0" stop-color="#B5B6BD"/><stop offset="1" stop-color="#F0EFF0"/></linearGradient></defs><path fill="url(#gradient_3)" d="M742.468 218.023C725.811 188.457 769.502 171.191 781.496 195.751C790.82 214.844 771.211 236.369 748.925 224.425C743.053 230.406 734.59 238.557 729.26 244.692C737.831 255.462 742.329 267.632 740.679 281.595C739.097 294.622 732.331 306.461 721.911 314.437C711.385 322.53 699.41 325.709 686.225 324.445C679.612 323.43 675.644 322.059 669.467 319.358C664.808 326.153 659.641 334.084 653.911 339.877C647.535 336.023 646.145 309.432 647.325 302.229C650.311 295.774 643.894 289.435 643.466 280.448C643.013 270.917 643.025 267.724 646.032 258.416C651.588 245.507 660.429 235.939 673.682 230.578C685.726 225.684 699.238 225.874 711.14 231.105C715.209 232.884 718.987 235.271 722.51 237.966C728.778 231.745 736.57 224.396 742.468 218.023ZM711.133 274.833C717.525 273.102 721.981 267.325 722.033 260.703C722.069 256.082 719.94 251.711 716.278 248.892C712.617 246.073 707.847 245.131 703.389 246.348C695.531 248.492 690.896 256.598 693.033 264.459C695.17 272.32 703.271 276.963 711.133 274.833Z"/><path fill="#9D9FA6" d="M647.325 302.229C650.311 295.774 643.894 289.435 643.466 280.448C643.013 270.917 643.025 267.724 646.032 258.416C647.672 265.781 653.629 263.515 658.105 267.634C670.348 278.901 683.752 291.387 691.252 306.413C691.77 307.454 691.899 310.598 691.132 311C687.449 312.931 684.082 320.43 681.846 322.142C685.278 323.173 683.773 322.013 686.225 324.445C679.612 323.43 675.644 322.059 669.467 319.358C664.808 326.153 659.641 334.084 653.911 339.877C647.535 336.023 646.145 309.432 647.325 302.229Z"/><path fill="#9D9FA6" d="M382.349 524.514C402.649 522.047 421.109 536.494 423.595 556.792C426.081 577.091 411.654 595.566 391.359 598.073C371.036 600.583 352.531 586.13 350.041 565.803C347.551 545.476 362.021 526.984 382.349 524.514ZM391.284 591.488C407.972 588.979 419.478 573.431 417.003 556.737C414.527 540.043 399.005 528.505 382.307 530.946C365.56 533.395 353.982 548.973 356.464 565.715C358.947 582.458 374.548 594.005 391.284 591.488Z"/><path fill="#D2D3D6" d="M1016.26 524.438C1036.65 522.961 1054.37 538.292 1055.85 558.679C1057.32 579.067 1041.99 596.789 1021.6 598.262C1001.22 599.734 983.501 584.404 982.026 564.02C980.551 543.636 995.878 525.915 1016.26 524.438ZM1022.9 591.973C1039.79 589.81 1051.73 574.357 1049.56 557.465C1047.38 540.572 1031.93 528.641 1015.04 530.822C998.157 533 986.238 548.445 988.408 565.326C990.578 582.206 1006.02 594.134 1022.9 591.973Z"/><path fill="#D2D3D6" d="M867.419 525.584C884.664 525.49 906.414 522.592 919.663 535.492C934.978 550.403 934.32 571.699 920.122 587.105C905.237 600.094 886.392 597.322 867.486 597.226C867.221 573.464 867.419 549.371 867.419 525.584ZM873.684 591.456C889.808 591.556 902.382 593.806 915.285 583.45C927.285 570.251 927.768 551.395 914.411 538.904C904.211 529.365 886.758 531.2 873.587 531.251C873.95 550.266 874.244 572.495 873.684 591.456Z"/><defs><linearGradient id="gradient_4" gradientUnits="userSpaceOnUse" x1="798.76611" y1="314.53201" x2="883.70166" y2="258.2572"><stop offset="0" stop-color="#A48DD2"/><stop offset="1" stop-color="#C7BBF6"/></linearGradient></defs><path fill="url(#gradient_4)" d="M846.864 195.081C866.021 229.181 868.698 289.471 858.217 326.822C855.724 335.638 852.686 344.291 849.12 352.73C844.28 345.477 829.252 346.413 823.548 338.861C822.557 337.549 817.058 333.204 815.703 332.438C813.9 332.464 813.38 332.931 811.866 333.888L809.401 332.635C836.343 305.847 851.572 269.474 851.753 231.481C851.825 218.234 850.024 207.782 846.864 195.081Z"/><path fill="#9D9FA6" d="M445.129 525.424C457.692 525.356 479.841 523.675 490.824 528.573C495.325 530.777 500.017 535.012 501.249 540.046C505.066 555.643 495.216 563.514 481.996 567.617C485.156 571.745 501.86 592.976 503.672 596.747C501.601 597.5 497.903 597.713 496.107 596.24C490.515 589.992 479.89 575.358 475.394 568.282L451.691 568.295C451.887 573.071 452.139 592.111 451.473 596.145L450.503 596.775C448.361 596.845 447.567 597.222 445.869 596.342C445.044 591.821 445.3 577.863 445.282 572.62L445.129 525.424ZM451.658 562.439C463.619 562.574 481.036 564.625 490.348 557.739C493.857 553.765 495.56 551.117 495.315 545.587C494.487 526.901 465.272 531.235 451.591 531.378C451.813 540.836 452.224 553.026 451.658 562.439Z"/><path fill="#9D9FA6" d="M532.712 577.984C530.699 582.82 526.587 595.11 522.11 597.121C520.003 597.056 519.735 596.981 517.79 596.163C518.837 593.247 520.095 590.644 521.482 587.879C531.467 567.975 539.851 547.302 549.833 527.408C550.757 525.567 551.324 525.646 553.084 524.75C558.822 524.649 560.356 531.058 562.058 535.504C563.413 538.299 565.077 541.52 566.223 544.36C569.151 549.084 590.325 595.033 589.97 596.79C588.467 597.483 586.841 597.707 585.211 597.282C582.625 596.608 576.671 581.58 575.078 578.106C561.182 577.834 546.817 578.211 532.712 577.984ZM535.423 572.17C547.073 572.731 560.734 572.379 572.534 572.344C568.364 563.314 564.259 554.254 560.22 545.165L558.489 541.838C557.031 538.531 555.692 535.546 554.048 532.307C547.463 545.222 541.999 559.499 535.423 572.17Z"/><path fill="#D2D3D6" d="M562.058 535.504C563.413 538.299 565.077 541.52 566.223 544.36C564.34 545.633 562.591 545.256 560.22 545.165L558.489 541.838C559.471 539.526 560.202 537.035 562.058 535.504Z"/><path fill="#D2D3D6" d="M783.144 525.504C784.908 525.448 789.215 524.769 789.354 526.81C790.793 542.67 787.368 563.316 791.447 578.489C796.257 596.382 829.962 598.158 835.105 578.293C839.372 561.811 834.15 542.555 836.94 526.627C838.424 525.408 841.289 525.357 842.941 526.241L843.101 529.302C843.065 536.768 843.07 544.234 843.114 551.7C843.296 576.822 843.072 599.19 809.854 598.049C797.571 597.627 786.111 588.274 784.419 575.929C782.236 559.994 783.156 541.783 783.144 525.504Z"/><path fill="#D2D3D6" d="M707.727 525.418C725.03 525.344 742.692 525.172 760.007 525.407C762.53 525.441 763.967 525.34 765.345 526.892C765.673 529.47 765.83 528.446 764.798 530.784C762.884 532.021 743.445 531.426 739.811 531.393L739.82 573.316L739.827 596.993L733.322 597.107C733.502 575.228 733.547 553.347 733.457 531.467C728.185 531.5 712.689 531.911 708.634 530.824C707.601 529.34 707.797 527.338 707.727 525.418Z"/><path fill="#D2D3D6" d="M686.439 571.858C676.414 562.356 660.018 565.264 650.161 557.429C635.572 545.057 645.773 526.241 663.462 524.918C669.624 524.457 690.309 525.255 691.029 533.842C690.383 535.806 690.404 536.291 688.869 537.508C685.041 535.385 680.04 532.388 676.134 531.169C668.98 528.935 650.818 530.963 650.256 541.057C649.019 563.298 681.049 552.028 693.293 570.363C690.389 571.431 689.522 571.497 686.439 571.858Z"/><defs><linearGradient id="gradient_5" gradientUnits="userSpaceOnUse" x1="306.29102" y1="574.77899" x2="340.97961" y2="547.64679"><stop offset="0" stop-color="#868287"/><stop offset="1" stop-color="#8F9997"/></linearGradient></defs><path fill="url(#gradient_5)" d="M320.408 525.437C322.795 525.37 324.625 525.128 326.87 525.902C327.528 532.273 327.179 544.787 327.173 551.611L327.228 597.179C325.063 597.182 322.311 597.545 320.694 596.603C319.435 576.626 320.402 546.192 320.408 525.437Z"/><path fill="#D2D3D6" d="M953.541 525.726C955.706 525.561 957.443 525.256 959.472 526.074C960.159 531.344 959.743 545.566 959.719 551.382C959.624 566.634 959.655 581.886 959.814 597.137C957.572 597.319 955.356 597.596 953.573 596.411C952.837 590.516 953.151 571.278 953.272 564.51C953.478 553.124 952.717 536.706 953.541 525.726Z"/><path fill="#9D9FA6" d="M693.293 570.363C694.698 573.215 694.991 574.998 695.181 578.078C696.47 598.868 667.779 601.169 653.467 595.297C648.714 593.347 642.421 590.395 641.611 585.079C643.808 582.059 648.737 584.935 651.098 586.664C659.966 593.159 677.743 596.293 685.919 586.215C687.935 583.723 688.881 580.534 688.551 577.346C688.353 575.417 687.505 573.457 686.439 571.858C689.522 571.497 690.389 571.431 693.293 570.363Z"/><path fill="#D2D3D6" d="M772.738 260.528C777.308 258.847 782.378 261.173 784.084 265.734C785.79 270.295 783.492 275.377 778.94 277.109C774.354 278.853 769.223 276.533 767.504 271.936C765.784 267.34 768.133 262.222 772.738 260.528Z"/><path fill="#D2D3D6" d="M765.343 116.537L765.95 115.944C768.177 116.359 769.28 116.708 771.37 117.403L771.477 116.211L769.355 114.842L769.483 113.913C774.737 116.158 786.067 122.648 790.543 126.299C785.853 124.477 768.612 118.636 765.343 116.537Z"/></svg>